HIERARCHY
ROOT Hips
{
  OFFSET 5.84602e-005 68.8428 3.50346
  CHANNELS 6 Xposition Yposition Zposition Zrotation Xrotation Yrotation
  JOINT Spine
  {
    OFFSET 0 8.597 -4.6522
    CHANNELS 3 Zrotation Xrotation Yrotation
    JOINT Spine1
    {
      OFFSET 0 7.8454 0.4098
      CHANNELS 3 Zrotation Xrotation Yrotation
      JOINT Spine2
      {
        OFFSET 0 9.7078 -2.1609
        CHANNELS 3 Zrotation Xrotation Yrotation
        JOINT Neck
        {
          OFFSET 0 21.8761 -0.4549
          CHANNELS 3 Zrotation Xrotation Yrotation
          JOINT Head
          {
            OFFSET 0 12.3537 3.3602
            CHANNELS 3 Zrotation Xrotation Yrotation
            End Site
            {
              OFFSET 0.0001 18.9506 0.5657
            }
          }
        }
        JOINT LeftShoulder
        {
          OFFSET 2.2086 21.1115 7.2329
          CHANNELS 3 Zrotation Xrotation Yrotation
          JOINT LeftArm
          {
            OFFSET 13.1193 3.0282 -4.8998
            CHANNELS 3 Zrotation Xrotation Yrotation
            JOINT LeftForeArm
            {
              OFFSET 27.4081 -0.0973053 -0.2375
              CHANNELS 3 Zrotation Xrotation Yrotation
              JOINT LeftHand
              {
                OFFSET 22.8641 0.0662994 -0.1369
                CHANNELS 3 Zrotation Xrotation Yrotation
                JOINT LeftHandIndex1
                {
                  OFFSET 8.8614 0.775009 2.4612
                  CHANNELS 3 Zrotation Xrotation Yrotation
                  JOINT LeftHandIndex2
                  {
                    OFFSET 3.3146 -0.808304 0.5841
                    CHANNELS 3 Zrotation Xrotation Yrotation
                    JOINT LeftHandIndex3
                    {
                      OFFSET 2.2628 -0.552002 0.3989
                      CHANNELS 3 Zrotation Xrotation Yrotation
                      End Site
                      {
                        OFFSET 1.6102 -0.4807 0.2612
                      }
                    }
                  }
                }
                JOINT LeftHandMiddle1
                {
                  OFFSET 8.9937 0.895004 0.2143
                  CHANNELS 3 Zrotation Xrotation Yrotation
                  JOINT LeftHandMiddle2
                  {
                    OFFSET 4.0984 0.0113983 -0.0242
                    CHANNELS 3 Zrotation Xrotation Yrotation
                    JOINT LeftHandMiddle3
                    {
                      OFFSET 2.2716 0.00689697 -0.0138001
                      CHANNELS 3 Zrotation Xrotation Yrotation
                      End Site
                      {
                        OFFSET 2.0404 -0.1441 0.0027
                      }
                    }
                  }
                }
                JOINT LeftHandRing1
                {
                  OFFSET 8.5234 0.597198 -2.0164
                  CHANNELS 3 Zrotation Xrotation Yrotation
                  JOINT LeftHandRing2
                  {
                    OFFSET 3.7188 -0.188293 -0.2328
                    CHANNELS 3 Zrotation Xrotation Yrotation
                    JOINT LeftHandRing3
                    {
                      OFFSET 2.1191 -0.106598 -0.1332
                      CHANNELS 3 Zrotation Xrotation Yrotation
                      End Site
                      {
                        OFFSET 1.8737 -0.2304 -0.0886
                      }
                    }
                  }
                }
                JOINT LeftHandPinky1
                {
                  OFFSET 7.9094 -0.601089 -3.4825
                  CHANNELS 3 Zrotation Xrotation Yrotation
                  JOINT LeftHandPinky2
                  {
                    OFFSET 2.2874 -0.477005 -0.6314
                    CHANNELS 3 Zrotation Xrotation Yrotation
                    JOINT LeftHandPinky3
                    {
                      OFFSET 1.6774 -0.349396 -0.4633
                      CHANNELS 3 Zrotation Xrotation Yrotation
                      End Site
                      {
                        OFFSET 1.4888 -0.4091 -0.3416
                      }
                    }
                  }
                }
                JOINT LeftHandThumb1
                {
                  OFFSET 1.833 -1.3875 1.3896
                  CHANNELS 3 Zrotation Xrotation Yrotation
                  JOINT LeftHandThumb2
                  {
                    OFFSET 3.4129 -1.121 2.5732
                    CHANNELS 3 Zrotation Xrotation Yrotation
                    JOINT LeftHandThumb3
                    {
                      OFFSET 2.2474 -0.804199 1.6192
                      CHANNELS 3 Zrotation Xrotation Yrotation
                      End Site
                      {
                        OFFSET 1.6527 -0.5689 1.1317
                      }
                    }
                  }
                }
              }
            }
          }
        }
        JOINT RightShoulder
        {
          OFFSET -2.2086 21.1115 7.2329
          CHANNELS 3 Zrotation Xrotation Yrotation
          JOINT RightArm
          {
            OFFSET -13.1216 3.0287 -4.9007
            CHANNELS 3 Zrotation Xrotation Yrotation
            JOINT RightForeArm
            {
              OFFSET -27.4081 -0.0973053 -0.2375
              CHANNELS 3 Zrotation Xrotation Yrotation
              JOINT RightHand
              {
                OFFSET -22.8641 0.0664063 -0.1369
                CHANNELS 3 Zrotation Xrotation Yrotation
                JOINT RightHandIndex1
                {
                  OFFSET -8.8614 0.774994 2.4612
                  CHANNELS 3 Zrotation Xrotation Yrotation
                  JOINT RightHandIndex2
                  {
                    OFFSET -3.3146 -0.808304 0.5841
                    CHANNELS 3 Zrotation Xrotation Yrotation
                    JOINT RightHandIndex3
                    {
                      OFFSET -2.2628 -0.552002 0.3989
                      CHANNELS 3 Zrotation Xrotation Yrotation
                      End Site
                      {
                        OFFSET -1.6102 -0.4807 0.2612
                      }
                    }
                  }
                }
                JOINT RightHandMiddle1
                {
                  OFFSET -8.9937 0.894989 0.2143
                  CHANNELS 3 Zrotation Xrotation Yrotation
                  JOINT RightHandMiddle2
                  {
                    OFFSET -4.0984 0.0113983 -0.0242
                    CHANNELS 3 Zrotation Xrotation Yrotation
                    JOINT RightHandMiddle3
                    {
                      OFFSET -2.2716 0.00691223 -0.0138001
                      CHANNELS 3 Zrotation Xrotation Yrotation
                      End Site
                      {
                        OFFSET -2.0404 -0.1441 0.0027
                      }
                    }
                  }
                }
                JOINT RightHandRing1
                {
                  OFFSET -8.5234 0.597198 -2.0164
                  CHANNELS 3 Zrotation Xrotation Yrotation
                  JOINT RightHandRing2
                  {
                    OFFSET -3.7188 -0.188309 -0.2328
                    CHANNELS 3 Zrotation Xrotation Yrotation
                    JOINT RightHandRing3
                    {
                      OFFSET -2.1191 -0.106598 -0.1332
                      CHANNELS 3 Zrotation Xrotation Yrotation
                      End Site
                      {
                        OFFSET -1.8737 -0.2304 -0.0886
                      }
                    }
                  }
                }
                JOINT RightHandPinky1
                {
                  OFFSET -7.9094 -0.601105 -3.4825
                  CHANNELS 3 Zrotation Xrotation Yrotation
                  JOINT RightHandPinky2
                  {
                    OFFSET -2.2874 -0.477005 -0.6314
                    CHANNELS 3 Zrotation Xrotation Yrotation
                    JOINT RightHandPinky3
                    {
                      OFFSET -1.6774 -0.349396 -0.4633
                      CHANNELS 3 Zrotation Xrotation Yrotation
                      End Site
                      {
                        OFFSET -1.4888 -0.4091 -0.3416
                      }
                    }
                  }
                }
                JOINT RightHandThumb1
                {
                  OFFSET -1.833 -1.38751 1.3896
                  CHANNELS 3 Zrotation Xrotation Yrotation
                  JOINT RightHandThumb2
                  {
                    OFFSET -3.41299 -1.12099 2.5732
                    CHANNELS 3 Zrotation Xrotation Yrotation
                    JOINT RightHandThumb3
                    {
                      OFFSET -2.24741 -0.804108 1.6192
                      CHANNELS 3 Zrotation Xrotation Yrotation
                      End Site
                      {
                        OFFSET -1.6527 -0.5689 1.1317
                      }
                    }
                  }
                }
              }
            }
          }
        }
      }
    }
  }
  JOINT RightUpLeg
  {
    OFFSET -9.1966 3.8861 -0.7581
    CHANNELS 3 Zrotation Xrotation Yrotation
    JOINT RightLeg
    {
      OFFSET -0.7359 -41.0265 0
      CHANNELS 3 Zrotation Xrotation Yrotation
      JOINT RightFoot
      {
        OFFSET 0 -40.2855 0
        CHANNELS 3 Zrotation Xrotation Yrotation
        JOINT RightToeBase
        {
          OFFSET 0 -5.6122 11.7359
          CHANNELS 3 Zrotation Xrotation Yrotation
          End Site
          {
            OFFSET 0 0 7.8731
          }
        }
      }
    }
  }
  JOINT LeftUpLeg
  {
    OFFSET 9.1965 3.8864 -0.7581
    CHANNELS 3 Zrotation Xrotation Yrotation
    JOINT LeftLeg
    {
      OFFSET 0.7359 -41.0268 0
      CHANNELS 3 Zrotation Xrotation Yrotation
      JOINT LeftFoot
      {
        OFFSET 0 -40.2855 0
        CHANNELS 3 Zrotation Xrotation Yrotation
        JOINT LeftToeBase
        {
          OFFSET 0 -5.6122 11.7359
          CHANNELS 3 Zrotation Xrotation Yrotation
          End Site
          {
            OFFSET 0 0 7.8731
          }
        }
      }
    }
  }
}
MOTION
Frames:	4
Frame Time:	0.0333333
5.84602e-005 68.8428 3.50346 0 0 -0 0 0 -0 0 0 -0 0 0 -0 0 0 -0 0 0 -0 0 0 -0 0 0 -0 0 0 -0 0 0 -0 0 0 -0 0 0 -0 0 0 -0 0 0 -0 -0.0146107 -8.87603e-005 -2.63497e-007 2.99804e-018 -2.42657e-020 -1.42182e-022 0 0 -0 -0.0187562 -0.001176 5.858e-005 5.06224e-018 3.88251e-019 1.21329e-020 0 0 -0 -0.012269 -0.00324817 0.000675346 -1.74678e-018 3.88251e-019 -0 0 0 -0 0 0 -0 0 0 -0 0 0 -0 0 0 -0 0 0 -0 0 0 -0 0 0 -0 0 0 -0 0 0 -0 0 0 -0 0.0149955 -9.10982e-005 2.64101e-007 -9.69331e-018 1.21329e-020 -4.7394e-023 0 0 -0 0.0189956 -0.00119102 -5.96516e-005 -5.41541e-019 0 2.42657e-020 0 0 -0 0.0122698 -0.00324857 -0.000673756 -2.00796e-019 0 -1.94126e-019 0 0 -0 0 0 -0 0 0 -0 3.39842 1.33031 -0.0637918 -5.65207e-008 0.834868 -0.000436188 -3.39935 -2.16518 -0.0642563 -8.89002e-024 -1.18485e-023 -1.48106e-024 -3.39844 1.35642 0.0640283 -3.18788e-007 0.782166 -0.000588827 3.39931 -2.13858 0.0634662 1.1399e-023 0 -0 
-1.65266 72.4995 14.8603 -6.41248 29.3133 -167.071 -0.661207 4.15254 -0.23747 -1.31029 8.30754 -0.428437 -1.31029 8.30754 -0.428441 0.0606555 -0.0858989 0.0967451 0.0228684 -0.0977432 0.00857936 -27.654 -9.87981 -28.3088 -11.7986 -22.8228 -23.8455 -19.602 5.95147 -35.8581 -55.038 -7.77274 6.93623 5.79889e-007 -4.12179e-007 -4.61591e-007 -2.31956e-006 1.64872e-006 1.84636e-006 -1.15978e-006 8.24358e-007 9.23182e-007 5.79889e-007 -4.12179e-007 -4.61591e-007 -0.0146244 -9.00604e-005 3.53113e-006 -1.1598e-006 8.2424e-007 9.23288e-007 5.79889e-007 -4.12179e-007 -4.61591e-007 -0.0187344 -0.00117412 6.29472e-005 -1.1598e-006 8.24206e-007 9.23328e-007 5.79889e-007 -4.12179e-007 -4.61591e-007 -0.0122762 -0.0032492 0.000676637 -1.15977e-006 8.24261e-007 9.23304e-007 5.79889e-007 -4.12179e-007 -4.61591e-007 -2.31956e-006 1.64872e-006 1.84636e-006 -1.15978e-006 8.24358e-007 9.23182e-007 26.416 0.919299 8.13222 38.3419 -7.44422 15.8095 19.5559 8.37221 2.78079 55.1577 3.71103 10.1543 4.97669e-007 3.49349e-006 -4.30741e-007 5.06965e-009 3.09869e-006 6.81917e-007 3.33469e-007 3.36189e-006 -5.98554e-008 4.97669e-007 3.49349e-006 -4.30741e-007 0.0150276 -8.29013e-005 8.511e-007 3.33289e-007 3.36188e-006 -6.02965e-008 4.97669e-007 3.49349e-006 -4.30741e-007 0.0189913 -0.00119214 -6.30519e-005 1.02684e-006 2.91796e-006 6.23954e-007 4.97669e-007 3.49349e-006 -4.30741e-007 0.0123003 -0.00325219 -0.000677701 3.333e-007 3.36192e-006 -6.02176e-008 4.97669e-007 3.49349e-006 -4.30741e-007 5.06965e-009 3.09869e-006 6.81917e-007 3.33469e-007 3.36189e-006 -5.98554e-008 -172.791 -19.1074 176.909 -138.37 36.2241 109.148 5.43135 -9.08833 23.8431 -2.61349e-006 5.89164e-008 -2.28568e-006 101.105 -19.54 117.519 -164.924 28.991 124.111 18.9694 32.3695 11.2689 5.53189e-010 -9.88642e-008 8.71315e-007 
-0.391757 71.6272 13.6384 -1.08884e-014 28.8893 -180 -0.622638 4.22517 -0.220075 -1.234 8.45251 -0.395573 -1.234 8.4525 -0.395573 0.278722 -0.3922 0.442955 0.104734 -0.447007 0.0394917 -24.9507 -10.6745 -28.2995 -10.228 -21.8451 -21.6229 -18.0884 5.36147 -32.6176 -52.8446 -7.71872 5.87406 5.85562e-007 -3.99295e-007 -4.71869e-007 -5.85562e-007 3.99295e-007 4.7187e-007 -1.17112e-006 7.9859e-007 9.43739e-007 5.85562e-007 -3.99295e-007 -4.71869e-007 -0.0146316 -8.88104e-005 -2.92344e-006 -1.17114e-006 7.98469e-007 9.43842e-007 5.85562e-007 -3.99295e-007 -4.71869e-007 -0.0187615 -0.00117217 6.25779e-005 -1.17113e-006 7.98435e-007 9.43882e-007 5.85562e-007 -3.99295e-007 -4.71869e-007 -0.0122624 -0.00324841 0.00068632 -5.06401e-007 -7.43204e-009 2.46469e-006 5.85562e-007 -3.99295e-007 -4.71869e-007 -5.85562e-007 3.99295e-007 4.7187e-007 -1.17112e-006 7.9859e-007 9.43739e-007 22.3145 -0.675773 7.39796 37.1625 -6.75254 15.4488 21.3102 8.0232 3.14439 50.5557 2.25857 9.4718 -2.9114e-007 -3.06717e-006 -1.03901e-006 1.00793e-006 3.9425e-006 -7.68551e-007 -2.9114e-007 -3.06717e-006 -1.03901e-006 -2.9114e-007 -3.06717e-006 -1.03901e-006 0.0149845 -8.97439e-005 -9.03183e-007 -1.11286e-007 -1.49232e-006 8.39999e-008 -2.9114e-007 -3.06717e-006 -1.03901e-006 0.0189638 -0.00118531 -5.93076e-005 -2.90963e-007 -3.06735e-006 -1.0385e-006 -2.9114e-007 -3.06717e-006 -1.03901e-006 0.0122585 -0.00325019 -0.000682914 -2.91031e-007 -3.06731e-006 -1.03868e-006 -2.9114e-007 -3.06717e-006 -1.03901e-006 1.00793e-006 3.9425e-006 -7.68551e-007 -2.9114e-007 -3.06717e-006 -1.03901e-006 -173.403 -28.6115 176.926 -130.19 41.31 106.329 4.30659 -7.48665 22.1873 0 0 -0 97.4564 -25.1582 117.31 -156.625 34.8879 121.343 17.5825 30.9158 11.0139 6.12367e-010 7.61666e-009 -1.84939e-008 
-0.304885 71.0568 13.6232 -1.09956e-014 29.556 -180 -0.620931 4.52493 -0.218774 -1.23025 9.05195 -0.39 -1.23025 9.05194 -0.39 0.489934 -0.684999 0.776773 0.183596 -0.782641 0.0696896 -24.2216 -11.8694 -29.8988 -9.92941 -21.9885 -21.0386 -17.5431 5.00902 -31.5616 -53.7868 -8.08355 5.25514 -1.17003e-006 8.00384e-007 9.43802e-007 -1.17003e-006 8.00384e-007 9.43802e-007 -1.75505e-006 1.20058e-006 1.4157e-006 -1.17003e-006 8.00384e-007 9.43802e-007 -0.0146311 -8.51814e-005 1.02928e-006 -1.75507e-006 1.20039e-006 1.41586e-006 -1.17003e-006 8.00384e-007 9.43802e-007 -0.018755 -0.00117914 5.71995e-005 -1.75506e-006 1.20034e-006 1.41592e-006 -1.17003e-006 8.00384e-007 9.43802e-007 -0.0122623 -0.00324462 0.000677333 -1.75502e-006 1.20043e-006 1.41588e-006 -1.17003e-006 8.00384e-007 9.43802e-007 -1.17003e-006 8.00384e-007 9.43802e-007 -1.75505e-006 1.20058e-006 1.4157e-006 19.8787 -2.12882 7.08948 38.2851 -6.47194 15.9944 24.0487 8.1835 3.64114 49.2352 1.08643 9.36479 -2.87186e-007 -3.49826e-007 7.22839e-007 1.43593e-007 1.74913e-007 -3.61419e-007 -2.87186e-007 -3.49826e-007 7.22839e-007 -2.87186e-007 -3.49826e-007 7.22839e-007 0.0149912 -9.73458e-005 6.74408e-007 -2.23962e-007 -3.64438e-006 -1.33144e-006 -2.87186e-007 -3.49826e-007 7.22839e-007 0.0190181 -0.00119017 -6.01934e-005 -2.87185e-007 -3.49706e-007 7.229e-007 -2.87186e-007 -3.49826e-007 7.22839e-007 0.0122164 -0.00323437 -0.000674026 -2.87168e-007 -3.49749e-007 7.22884e-007 -2.87186e-007 -3.49826e-007 7.22839e-007 1.43593e-007 1.74913e-007 -3.61419e-007 -2.87186e-007 -3.49826e-007 7.22839e-007 -173.692 -28.9329 176.717 -129.676 41.5997 106.025 3.93018 -6.65365 22.0153 2.55572e-006 1.89364e-006 2.77207e-007 98.1189 -25.2258 117.725 -156.661 34.8483 121.389 16.903 31.7457 11.931 3.35166e-009 4.02361e-008 -9.78881e-008 
